<mxfile host="65bd71144e">
    <diagram id="RzdB1_ECVK01WcsdOi-J" name="sodo">
        <mxGraphModel dx="1386" dy="787" grid="1" gridSize="10" guides="1" tooltips="1" connect="1" arrows="1" fold="1" page="1" pageScale="1" pageWidth="1169" pageHeight="827" background="none" math="0" shadow="0">
            <root>
                <mxCell id="0"/>
                <mxCell id="1" parent="0"/>
                <mxCell id="240" value="&lt;u&gt;穴加工用結合ソフト&lt;/u&gt;" style="rounded=0;whiteSpace=wrap;html=1;verticalAlign=top;" parent="1" vertex="1">
                    <mxGeometry x="930" y="50" width="220" height="420" as="geometry"/>
                </mxCell>
                <mxCell id="597" style="edgeStyle=none;html=1;endArrow=none;endFill=0;" parent="1" source="238" target="596" edge="1">
                    <mxGeometry relative="1" as="geometry"/>
                </mxCell>
                <mxCell id="683" value="" style="rounded=1;whiteSpace=wrap;html=1;" parent="1" vertex="1">
                    <mxGeometry x="940" y="220" width="200" height="120" as="geometry"/>
                </mxCell>
                <mxCell id="632" value="" style="rounded=0;whiteSpace=wrap;html=1;fontSize=16;" parent="1" vertex="1">
                    <mxGeometry x="590" y="860" width="570" height="320" as="geometry"/>
                </mxCell>
                <mxCell id="631" style="edgeStyle=none;html=1;startArrow=none;startFill=0;endArrow=none;endFill=0;dashed=1;" parent="1" source="629" target="604" edge="1">
                    <mxGeometry relative="1" as="geometry"/>
                </mxCell>
                <mxCell id="629" value="" style="rounded=0;whiteSpace=wrap;html=1;fontSize=16;" parent="1" vertex="1">
                    <mxGeometry x="600" y="947" width="440" height="69" as="geometry"/>
                </mxCell>
                <mxCell id="627" style="edgeStyle=none;html=1;dashed=1;startArrow=none;startFill=0;endArrow=none;endFill=0;" parent="1" source="622" target="IUCaD1viUXP5vsJWslPz-527" edge="1">
                    <mxGeometry relative="1" as="geometry"/>
                </mxCell>
                <mxCell id="622" value="" style="rounded=0;whiteSpace=wrap;html=1;fontSize=16;" parent="1" vertex="1">
                    <mxGeometry x="600" y="868" width="440" height="69" as="geometry"/>
                </mxCell>
                <mxCell id="363" value="&lt;u&gt;NCプログラム集約&lt;/u&gt;" style="rounded=0;whiteSpace=wrap;html=1;verticalAlign=top;" parent="1" vertex="1">
                    <mxGeometry x="10" y="870" width="340" height="360" as="geometry"/>
                </mxCell>
                <mxCell id="164" style="edgeStyle=none;html=1;fontColor=#FF0000;endArrow=none;endFill=0;dashed=1;startArrow=none;" parent="1" source="5" target="158" edge="1">
                    <mxGeometry relative="1" as="geometry"/>
                </mxCell>
                <mxCell id="121" value="" style="rounded=0;whiteSpace=wrap;html=1;dashed=1;fillColor=none;" parent="1" vertex="1">
                    <mxGeometry x="101.24" y="180" width="168.76" height="80" as="geometry"/>
                </mxCell>
                <mxCell id="2" value="システム関連図" style="text;html=1;strokeColor=none;fillColor=none;align=center;verticalAlign=middle;whiteSpace=wrap;rounded=0;" parent="1" vertex="1">
                    <mxGeometry x="40" y="20" width="100" height="20" as="geometry"/>
                </mxCell>
                <mxCell id="611" style="edgeStyle=none;html=1;startArrow=none;startFill=0;endArrow=classic;endFill=1;" parent="1" source="5" target="610" edge="1">
                    <mxGeometry relative="1" as="geometry"/>
                </mxCell>
                <mxCell id="5" value="穴加工用結合ソフト" style="rounded=1;whiteSpace=wrap;html=1;" parent="1" vertex="1">
                    <mxGeometry x="120.62" y="200" width="130" height="40" as="geometry"/>
                </mxCell>
                <mxCell id="21" value="ユースケース図" style="text;html=1;strokeColor=none;fillColor=none;align=center;verticalAlign=middle;whiteSpace=wrap;rounded=0;" parent="1" vertex="1">
                    <mxGeometry x="740" y="20" width="100" height="20" as="geometry"/>
                </mxCell>
                <mxCell id="33" value="ドメインモデル図" style="text;html=1;strokeColor=none;fillColor=none;align=center;verticalAlign=middle;whiteSpace=wrap;rounded=0;" parent="1" vertex="1">
                    <mxGeometry x="40" y="840" width="110" height="20" as="geometry"/>
                </mxCell>
                <mxCell id="123" style="edgeStyle=none;html=1;endArrow=none;endFill=0;" parent="1" source="122" target="121" edge="1">
                    <mxGeometry relative="1" as="geometry"/>
                </mxCell>
                <mxCell id="122" value="今回開発する範囲" style="text;html=1;strokeColor=none;fillColor=none;align=center;verticalAlign=middle;whiteSpace=wrap;rounded=0;" parent="1" vertex="1">
                    <mxGeometry x="260.62" y="95" width="140" height="30" as="geometry"/>
                </mxCell>
                <mxCell id="589" style="edgeStyle=none;html=1;endArrow=none;endFill=0;" parent="1" source="238" target="683" edge="1">
                    <mxGeometry relative="1" as="geometry"/>
                </mxCell>
                <mxCell id="607" style="edgeStyle=none;html=1;startArrow=none;startFill=0;endArrow=none;endFill=0;" parent="1" source="238" target="606" edge="1">
                    <mxGeometry relative="1" as="geometry"/>
                </mxCell>
                <mxCell id="609" style="edgeStyle=none;html=1;startArrow=none;startFill=0;endArrow=none;endFill=0;" parent="1" source="238" target="608" edge="1">
                    <mxGeometry relative="1" as="geometry"/>
                </mxCell>
                <mxCell id="674" style="edgeStyle=none;html=1;endArrow=none;endFill=0;" parent="1" source="238" target="673" edge="1">
                    <mxGeometry relative="1" as="geometry"/>
                </mxCell>
                <mxCell id="676" style="edgeStyle=none;html=1;endArrow=none;endFill=0;" parent="1" source="238" target="675" edge="1">
                    <mxGeometry relative="1" as="geometry"/>
                </mxCell>
                <mxCell id="238" value="工作部員" style="shape=umlActor;verticalLabelPosition=bottom;verticalAlign=top;html=1;outlineConnect=0;" parent="1" vertex="1">
                    <mxGeometry x="790" y="75" width="30" height="60" as="geometry"/>
                </mxCell>
                <mxCell id="585" style="edgeStyle=none;html=1;endArrow=none;endFill=0;" parent="1" source="249" target="5" edge="1">
                    <mxGeometry relative="1" as="geometry"/>
                </mxCell>
                <mxCell id="249" value="工作部員" style="shape=umlActor;verticalLabelPosition=bottom;verticalAlign=top;html=1;outlineConnect=0;" parent="1" vertex="1">
                    <mxGeometry x="20.62" y="190" width="30" height="60" as="geometry"/>
                </mxCell>
                <mxCell id="259" value="サブプログラムの呼び出し番号を書き換える" style="rounded=1;whiteSpace=wrap;html=1;" parent="1" vertex="1">
                    <mxGeometry x="950" y="290" width="180" height="40" as="geometry"/>
                </mxCell>
                <mxCell id="372" value="オブジェクト図" style="text;html=1;strokeColor=none;fillColor=none;align=center;verticalAlign=middle;whiteSpace=wrap;rounded=0;" parent="1" vertex="1">
                    <mxGeometry x="520" y="840" width="100" height="20" as="geometry"/>
                </mxCell>
                <mxCell id="594" style="edgeStyle=none;html=1;endArrow=none;endFill=0;" parent="1" source="465" target="592" edge="1">
                    <mxGeometry relative="1" as="geometry"/>
                </mxCell>
                <mxCell id="465" value="(NCプログラム)&lt;br&gt;プログラム番号: O0012" style="rounded=1;whiteSpace=wrap;html=1;verticalAlign=middle;align=center;fillColor=#60a917;strokeColor=#2D7600;fontColor=#ffffff;" parent="1" vertex="1">
                    <mxGeometry x="620" y="878" width="160" height="49" as="geometry"/>
                </mxCell>
                <mxCell id="664" value="1" style="edgeStyle=none;html=1;startArrow=diamond;startFill=1;endArrow=none;endFill=0;" parent="1" source="513" target="661" edge="1">
                    <mxGeometry x="-0.5076" y="10" relative="1" as="geometry">
                        <mxPoint as="offset"/>
                    </mxGeometry>
                </mxCell>
                <mxCell id="667" value="0..n" style="edgeLabel;html=1;align=center;verticalAlign=middle;resizable=0;points=[];" parent="664" connectable="0" vertex="1">
                    <mxGeometry x="0.615" relative="1" as="geometry">
                        <mxPoint x="11" y="-2" as="offset"/>
                    </mxGeometry>
                </mxCell>
                <mxCell id="513" value="&lt;span style=&quot;color: rgb(255 , 255 , 255)&quot;&gt;&lt;u&gt;NCプログラム&lt;/u&gt;&lt;/span&gt;(NcProgramCode&lt;span&gt;)&lt;/span&gt;&lt;br style=&quot;color: rgb(255 , 255 , 255)&quot;&gt;&lt;span style=&quot;color: rgb(255 , 255 , 255)&quot;&gt;プログラム番号&lt;/span&gt;" style="rounded=1;whiteSpace=wrap;html=1;verticalAlign=middle;align=center;" parent="1" vertex="1">
                    <mxGeometry x="199.38" y="940" width="111.24" height="60" as="geometry"/>
                </mxCell>
                <mxCell id="158" value="&lt;span&gt;解決したい課題&lt;br&gt;・マシニング結合ソフトはあるが使い勝手が悪く手編集を行っている&lt;/span&gt;&lt;br&gt;&lt;p style=&quot;margin-top: 0pt ; margin-bottom: 0pt ; margin-left: 0in ; direction: ltr ; unicode-bidi: embed ; word-break: normal&quot;&gt;・ドリルサイクルの編集ソフトがなく、手編集を行っている&lt;/p&gt;&lt;p style=&quot;margin-top: 0pt ; margin-bottom: 0pt ; margin-left: 0in ; direction: ltr ; unicode-bidi: embed ; word-break: normal&quot;&gt;・手編集をしたデータの確認作業に時間を要する&lt;/p&gt;&lt;p style=&quot;margin-top: 0pt ; margin-bottom: 0pt ; margin-left: 0in ; direction: ltr ; unicode-bidi: embed ; word-break: normal&quot;&gt;・結合したデータの確認作業に時間を要する&lt;/p&gt;&lt;p style=&quot;margin-top: 0pt ; margin-bottom: 0pt ; margin-left: 0in ; direction: ltr ; unicode-bidi: embed ; word-break: normal&quot;&gt;&lt;br&gt;&lt;/p&gt;&lt;p style=&quot;margin-top: 0pt ; margin-bottom: 0pt ; margin-left: 0in ; direction: ltr ; unicode-bidi: embed ; word-break: normal&quot;&gt;・サブプログラムを読み込み後に確認ダイアログを出す&lt;/p&gt;&lt;p style=&quot;margin-top: 0pt ; margin-bottom: 0pt ; margin-left: 0in ; direction: ltr ; unicode-bidi: embed ; word-break: normal&quot;&gt;&lt;span&gt;・穴加工に絞ってNCプログラムを結合する&lt;/span&gt;&lt;br&gt;&lt;/p&gt;&lt;p style=&quot;margin-top: 0pt ; margin-bottom: 0pt ; margin-left: 0in ; direction: ltr ; unicode-bidi: embed ; word-break: normal&quot;&gt;&lt;br&gt;&lt;/p&gt;&lt;p style=&quot;margin-top: 0pt ; margin-bottom: 0pt ; margin-left: 0in ; direction: ltr ; unicode-bidi: embed ; word-break: normal&quot;&gt;&lt;br&gt;&lt;/p&gt;&lt;p style=&quot;margin-top: 0pt ; margin-bottom: 0pt ; margin-left: 0in ; direction: ltr ; unicode-bidi: embed ; word-break: normal&quot;&gt;・サブNCプログラムはDrag&amp;amp;Dropで入力したい&lt;/p&gt;&lt;p style=&quot;margin-top: 0pt ; margin-bottom: 0pt ; margin-left: 0in ; direction: ltr ; unicode-bidi: embed ; word-break: normal&quot;&gt;・サブNCプログラムは、ドリル、リーマ、タップの3種&lt;/p&gt;&lt;p style=&quot;margin-top: 0pt ; margin-bottom: 0pt ; margin-left: 0in ; direction: ltr ; unicode-bidi: embed ; word-break: normal&quot;&gt;・リーマのときは、クリスタルリーマとスキルリーマの選択を表示する&lt;/p&gt;&lt;p style=&quot;margin-top: 0pt ; margin-bottom: 0pt ; margin-left: 0in ; direction: ltr ; unicode-bidi: embed ; word-break: normal&quot;&gt;・サブNCプログラムの呼び出し番号はファイル名に由来する&lt;/p&gt;&lt;p style=&quot;margin-top: 0pt ; margin-bottom: 0pt ; margin-left: 0in ; direction: ltr ; unicode-bidi: embed ; word-break: normal&quot;&gt;　(※プログラム中のプログラム番号ではない)&lt;/p&gt;&lt;p style=&quot;margin-top: 0pt ; margin-bottom: 0pt ; margin-left: 0in ; direction: ltr ; unicode-bidi: embed ; word-break: normal&quot;&gt;&lt;br&gt;&lt;/p&gt;&lt;p style=&quot;margin-top: 0pt ; margin-bottom: 0pt ; margin-left: 0in ; direction: ltr ; unicode-bidi: embed ; word-break: normal&quot;&gt;・リーマ径により工程がないこともある&lt;/p&gt;&lt;p style=&quot;margin-top: 0pt ; margin-bottom: 0pt ; margin-left: 0in ; direction: ltr ; unicode-bidi: embed ; word-break: normal&quot;&gt;[タップの工程]&lt;/p&gt;&lt;p style=&quot;margin-top: 0pt ; margin-bottom: 0pt ; margin-left: 0in ; direction: ltr ; unicode-bidi: embed ; word-break: normal&quot;&gt;・C/D→下穴DR1→面取り→タップ&lt;/p&gt;&lt;p style=&quot;margin-top: 0pt ; margin-bottom: 0pt ; margin-left: 0in ; direction: ltr ; unicode-bidi: embed ; word-break: normal&quot;&gt;[リーマの工程]&lt;/p&gt;&lt;p style=&quot;margin-top: 0pt ; margin-bottom: 0pt ; margin-left: 0in ; direction: ltr ; unicode-bidi: embed ; word-break: normal&quot;&gt;・C/D→下穴DR1→下穴DR2→面取り→リーマ&lt;br&gt;&lt;/p&gt;&lt;p style=&quot;margin-top: 0pt ; margin-bottom: 0pt ; margin-left: 0in ; direction: ltr ; unicode-bidi: embed ; word-break: normal&quot;&gt;[ドリルの工程]&lt;/p&gt;・C/D→下穴DR1" style="rounded=0;whiteSpace=wrap;html=1;align=left;verticalAlign=top;fontSize=13;fontColor=default;" parent="1" vertex="1">
                    <mxGeometry x="30.310000000000002" y="360" width="510" height="370" as="geometry"/>
                </mxCell>
                <mxCell id="IUCaD1viUXP5vsJWslPz-527" value="&lt;span style=&quot;font-size: 13px&quot;&gt;コメント&lt;br style=&quot;font-size: 13px&quot;&gt;&lt;/span&gt;" style="rounded=0;whiteSpace=wrap;html=1;align=left;verticalAlign=top;fontSize=13;spacing=2;" parent="1" vertex="1">
                    <mxGeometry x="1070" y="868" width="80" height="30" as="geometry"/>
                </mxCell>
                <mxCell id="537" value="サブNCプログラムのコメントからドリル、リーマ、タップの3種を識別する" style="rounded=0;whiteSpace=wrap;html=1;align=left;verticalAlign=top;fontSize=13;spacing=2;" parent="1" vertex="1">
                    <mxGeometry x="360" y="940" width="210" height="209.5" as="geometry"/>
                </mxCell>
                <mxCell id="580" style="edgeStyle=none;html=1;" parent="1" source="579" target="5" edge="1">
                    <mxGeometry relative="1" as="geometry"/>
                </mxCell>
                <mxCell id="613" style="edgeStyle=none;html=1;startArrow=none;startFill=0;endArrow=classic;endFill=1;" parent="1" source="579" target="612" edge="1">
                    <mxGeometry relative="1" as="geometry"/>
                </mxCell>
                <mxCell id="579" value="サブNCプログラム" style="rounded=1;whiteSpace=wrap;html=1;" parent="1" vertex="1">
                    <mxGeometry x="120.62" y="90" width="130" height="40" as="geometry"/>
                </mxCell>
                <mxCell id="582" style="edgeStyle=none;html=1;endArrow=none;endFill=0;" parent="1" source="581" target="579" edge="1">
                    <mxGeometry relative="1" as="geometry"/>
                </mxCell>
                <mxCell id="581" value="設計部員" style="shape=umlActor;verticalLabelPosition=bottom;verticalAlign=top;html=1;outlineConnect=0;" parent="1" vertex="1">
                    <mxGeometry x="20.000000000000004" y="80" width="30" height="60" as="geometry"/>
                </mxCell>
                <mxCell id="584" style="edgeStyle=none;html=1;endArrow=none;endFill=0;" parent="1" source="583" target="581" edge="1">
                    <mxGeometry relative="1" as="geometry"/>
                </mxCell>
                <mxCell id="583" value="設計部で作る" style="rounded=0;whiteSpace=wrap;html=1;align=left;verticalAlign=top;fontSize=13;fontColor=default;" parent="1" vertex="1">
                    <mxGeometry x="185.62" y="15" width="110" height="30" as="geometry"/>
                </mxCell>
                <mxCell id="588" value="機械・穴径・素材・板厚ごとにメインデータを書き換える" style="rounded=1;whiteSpace=wrap;html=1;" parent="1" vertex="1">
                    <mxGeometry x="950" y="230" width="180" height="40" as="geometry"/>
                </mxCell>
                <mxCell id="591" style="edgeStyle=none;html=1;endArrow=none;endFill=0;dashed=1;" parent="1" source="590" target="588" edge="1">
                    <mxGeometry relative="1" as="geometry"/>
                </mxCell>
                <mxCell id="590" value="・穴径はサブプログラムから指定される&lt;br&gt;&lt;p style=&quot;margin-top: 0pt ; margin-bottom: 0pt ; margin-left: 0in ; direction: ltr ; unicode-bidi: embed ; word-break: normal&quot;&gt;&lt;br&gt;&lt;/p&gt;" style="rounded=0;whiteSpace=wrap;html=1;align=left;verticalAlign=top;fontSize=13;fontColor=default;" parent="1" vertex="1">
                    <mxGeometry x="660" y="190" width="180" height="50" as="geometry"/>
                </mxCell>
                <mxCell id="595" style="edgeStyle=none;html=1;endArrow=none;endFill=0;startArrow=diamond;startFill=1;" parent="1" source="601" target="593" edge="1">
                    <mxGeometry relative="1" as="geometry"/>
                </mxCell>
                <mxCell id="599" style="edgeStyle=none;html=1;endArrow=none;endFill=0;startArrow=diamond;startFill=1;" parent="1" source="592" target="598" edge="1">
                    <mxGeometry relative="1" as="geometry"/>
                </mxCell>
                <mxCell id="592" value="(ブロック)" style="rounded=1;whiteSpace=wrap;html=1;verticalAlign=middle;align=center;fillColor=#60a917;strokeColor=#2D7600;fontColor=#ffffff;" parent="1" vertex="1">
                    <mxGeometry x="800" y="887.5" width="80" height="30" as="geometry"/>
                </mxCell>
                <mxCell id="593" value="(ワード)&lt;br&gt;アドレス: G&lt;br&gt;データ: 54" style="rounded=1;whiteSpace=wrap;html=1;verticalAlign=middle;align=center;fillColor=#60a917;strokeColor=#2D7600;fontColor=#ffffff;" parent="1" vertex="1">
                    <mxGeometry x="900" y="957" width="80" height="49" as="geometry"/>
                </mxCell>
                <mxCell id="596" value="穴加工の工程を結合する" style="rounded=1;whiteSpace=wrap;html=1;" parent="1" vertex="1">
                    <mxGeometry x="950" y="400" width="180" height="40" as="geometry"/>
                </mxCell>
                <mxCell id="598" value="(コメント)&lt;br&gt;コメント: RB-250F" style="rounded=1;whiteSpace=wrap;html=1;verticalAlign=middle;align=center;fillColor=#60a917;strokeColor=#2D7600;fontColor=#ffffff;" parent="1" vertex="1">
                    <mxGeometry x="900" y="878" width="120" height="49" as="geometry"/>
                </mxCell>
                <mxCell id="601" value="(ブロック)" style="rounded=1;whiteSpace=wrap;html=1;verticalAlign=middle;align=center;fillColor=#60a917;strokeColor=#2D7600;fontColor=#ffffff;" parent="1" vertex="1">
                    <mxGeometry x="800" y="966.5" width="80" height="30" as="geometry"/>
                </mxCell>
                <mxCell id="604" value="&lt;span style=&quot;font-size: 13px&quot;&gt;プログラム&lt;br style=&quot;font-size: 13px&quot;&gt;&lt;/span&gt;" style="rounded=0;whiteSpace=wrap;html=1;align=left;verticalAlign=top;fontSize=13;spacing=2;" parent="1" vertex="1">
                    <mxGeometry x="1070" y="947" width="80" height="30" as="geometry"/>
                </mxCell>
                <mxCell id="606" value="メインデータとサブプログラムをFTPで転送する" style="rounded=1;whiteSpace=wrap;html=1;" parent="1" vertex="1">
                    <mxGeometry x="950" y="550" width="180" height="40" as="geometry"/>
                </mxCell>
                <mxCell id="608" value="加工機を実行する" style="rounded=1;whiteSpace=wrap;html=1;" parent="1" vertex="1">
                    <mxGeometry x="950" y="610" width="180" height="40" as="geometry"/>
                </mxCell>
                <mxCell id="614" style="edgeStyle=none;html=1;startArrow=none;startFill=0;endArrow=classic;endFill=1;" parent="1" source="610" target="612" edge="1">
                    <mxGeometry relative="1" as="geometry"/>
                </mxCell>
                <mxCell id="610" value="結合メインデータ" style="rounded=1;whiteSpace=wrap;html=1;" parent="1" vertex="1">
                    <mxGeometry x="120.62" y="290" width="130" height="40" as="geometry"/>
                </mxCell>
                <mxCell id="617" value="転送する" style="edgeStyle=none;html=1;startArrow=none;startFill=0;endArrow=classic;endFill=1;" parent="1" source="612" target="615" edge="1">
                    <mxGeometry relative="1" as="geometry"/>
                </mxCell>
                <mxCell id="612" value="FFFTP" style="rounded=1;whiteSpace=wrap;html=1;" parent="1" vertex="1">
                    <mxGeometry x="320" y="220" width="70" height="40" as="geometry"/>
                </mxCell>
                <mxCell id="615" value="加工機" style="rounded=1;whiteSpace=wrap;html=1;" parent="1" vertex="1">
                    <mxGeometry x="320" y="310" width="70" height="40" as="geometry"/>
                </mxCell>
                <mxCell id="633" style="edgeStyle=none;html=1;dashed=1;startArrow=none;startFill=0;endArrow=none;endFill=0;" parent="1" source="623" target="632" edge="1">
                    <mxGeometry relative="1" as="geometry"/>
                </mxCell>
                <mxCell id="623" value="&lt;span style=&quot;font-size: 13px&quot;&gt;メインデータ/サブプログラム&lt;br style=&quot;font-size: 13px&quot;&gt;&lt;/span&gt;" style="rounded=0;whiteSpace=wrap;html=1;align=left;verticalAlign=top;fontSize=13;spacing=2;" parent="1" vertex="1">
                    <mxGeometry x="460" y="860" width="120" height="40" as="geometry"/>
                </mxCell>
                <mxCell id="630" style="edgeStyle=none;html=1;startArrow=none;startFill=0;endArrow=none;endFill=0;" parent="1" source="628" target="601" edge="1">
                    <mxGeometry relative="1" as="geometry"/>
                </mxCell>
                <mxCell id="628" value="(NCプログラム)&lt;br&gt;プログラム番号: O0012" style="rounded=1;whiteSpace=wrap;html=1;verticalAlign=middle;align=center;fillColor=#60a917;strokeColor=#2D7600;fontColor=#ffffff;" parent="1" vertex="1">
                    <mxGeometry x="620" y="957" width="160" height="49" as="geometry"/>
                </mxCell>
                <mxCell id="651" style="edgeStyle=none;html=1;startArrow=none;startFill=0;endArrow=none;endFill=0;dashed=1;" parent="1" source="652" target="656" edge="1">
                    <mxGeometry relative="1" as="geometry"/>
                </mxCell>
                <mxCell id="652" value="" style="rounded=0;whiteSpace=wrap;html=1;fontSize=16;" parent="1" vertex="1">
                    <mxGeometry x="600" y="1030" width="440" height="130" as="geometry"/>
                </mxCell>
                <mxCell id="653" style="edgeStyle=none;html=1;endArrow=none;endFill=0;startArrow=diamond;startFill=1;" parent="1" source="655" target="654" edge="1">
                    <mxGeometry relative="1" as="geometry"/>
                </mxCell>
                <mxCell id="654" value="(ワード)&lt;br&gt;アドレス: G&lt;br&gt;データ: 54" style="rounded=1;whiteSpace=wrap;html=1;verticalAlign=middle;align=center;fillColor=#60a917;strokeColor=#2D7600;fontColor=#ffffff;" parent="1" vertex="1">
                    <mxGeometry x="900" y="1040" width="80" height="49" as="geometry"/>
                </mxCell>
                <mxCell id="660" style="edgeStyle=none;html=1;startArrow=diamond;startFill=1;endArrow=none;endFill=0;" parent="1" source="655" target="659" edge="1">
                    <mxGeometry relative="1" as="geometry"/>
                </mxCell>
                <mxCell id="655" value="(ブロック)" style="rounded=1;whiteSpace=wrap;html=1;verticalAlign=middle;align=center;fillColor=#60a917;strokeColor=#2D7600;fontColor=#ffffff;" parent="1" vertex="1">
                    <mxGeometry x="800" y="1049.5" width="80" height="30" as="geometry"/>
                </mxCell>
                <mxCell id="656" value="&lt;span style=&quot;font-size: 13px&quot;&gt;プログラム+コメント&lt;br style=&quot;font-size: 13px&quot;&gt;&lt;/span&gt;" style="rounded=0;whiteSpace=wrap;html=1;align=left;verticalAlign=top;fontSize=13;spacing=2;" parent="1" vertex="1">
                    <mxGeometry x="1070" y="1030" width="80" height="50" as="geometry"/>
                </mxCell>
                <mxCell id="657" style="edgeStyle=none;html=1;startArrow=none;startFill=0;endArrow=none;endFill=0;" parent="1" source="658" target="655" edge="1">
                    <mxGeometry relative="1" as="geometry"/>
                </mxCell>
                <mxCell id="658" value="(NCプログラム)&lt;br&gt;プログラム番号: O0012" style="rounded=1;whiteSpace=wrap;html=1;verticalAlign=middle;align=center;fillColor=#60a917;strokeColor=#2D7600;fontColor=#ffffff;" parent="1" vertex="1">
                    <mxGeometry x="620" y="1040" width="160" height="49" as="geometry"/>
                </mxCell>
                <mxCell id="659" value="(コメント)&lt;br&gt;コメント: RB-250F" style="rounded=1;whiteSpace=wrap;html=1;verticalAlign=middle;align=center;fillColor=#60a917;strokeColor=#2D7600;fontColor=#ffffff;" parent="1" vertex="1">
                    <mxGeometry x="900" y="1100" width="120" height="49" as="geometry"/>
                </mxCell>
                <mxCell id="665" style="edgeStyle=none;html=1;startArrow=diamond;startFill=1;endArrow=none;endFill=0;" parent="1" source="661" target="662" edge="1">
                    <mxGeometry relative="1" as="geometry"/>
                </mxCell>
                <mxCell id="668" value="1" style="edgeLabel;html=1;align=center;verticalAlign=middle;resizable=0;points=[];" parent="665" connectable="0" vertex="1">
                    <mxGeometry x="-0.5391" y="-1" relative="1" as="geometry">
                        <mxPoint x="1" y="-1" as="offset"/>
                    </mxGeometry>
                </mxCell>
                <mxCell id="669" value="0..n" style="edgeLabel;html=1;align=center;verticalAlign=middle;resizable=0;points=[];" parent="665" connectable="0" vertex="1">
                    <mxGeometry x="0.595" relative="1" as="geometry">
                        <mxPoint x="-1" as="offset"/>
                    </mxGeometry>
                </mxCell>
                <mxCell id="666" style="edgeStyle=none;html=1;startArrow=diamond;startFill=1;endArrow=none;endFill=0;" parent="1" source="661" target="663" edge="1">
                    <mxGeometry relative="1" as="geometry"/>
                </mxCell>
                <mxCell id="670" value="1" style="edgeLabel;html=1;align=center;verticalAlign=middle;resizable=0;points=[];" parent="666" connectable="0" vertex="1">
                    <mxGeometry x="-0.565" y="1" relative="1" as="geometry">
                        <mxPoint x="-2" y="6" as="offset"/>
                    </mxGeometry>
                </mxCell>
                <mxCell id="671" value="0..n" style="edgeLabel;html=1;align=center;verticalAlign=middle;resizable=0;points=[];" parent="666" connectable="0" vertex="1">
                    <mxGeometry x="0.6746" relative="1" as="geometry">
                        <mxPoint y="-3" as="offset"/>
                    </mxGeometry>
                </mxCell>
                <mxCell id="661" value="&lt;span style=&quot;color: rgb(255 , 255 , 255)&quot;&gt;&lt;u&gt;ブロック&lt;br&gt;&lt;/u&gt;&lt;/span&gt;(NCBlock&lt;span&gt;)&lt;/span&gt;" style="rounded=1;whiteSpace=wrap;html=1;verticalAlign=middle;align=center;" parent="1" vertex="1">
                    <mxGeometry x="120.62" y="1044.5" width="80" height="40" as="geometry"/>
                </mxCell>
                <mxCell id="672" style="edgeStyle=none;html=1;startArrow=none;startFill=0;endArrow=none;endFill=0;" parent="1" source="662" target="537" edge="1">
                    <mxGeometry relative="1" as="geometry">
                        <mxPoint x="360" y="1169.6265229615744" as="targetPoint"/>
                    </mxGeometry>
                </mxCell>
                <mxCell id="662" value="&lt;span style=&quot;color: rgb(255 , 255 , 255)&quot;&gt;&lt;u&gt;コメント&lt;br&gt;&lt;/u&gt;&lt;/span&gt;(NCComment&lt;span&gt;)&lt;/span&gt;&lt;br style=&quot;color: rgb(255 , 255 , 255)&quot;&gt;&lt;font color=&quot;#ffffff&quot;&gt;コメント&lt;/font&gt;" style="rounded=1;whiteSpace=wrap;html=1;verticalAlign=middle;align=center;" parent="1" vertex="1">
                    <mxGeometry x="160" y="1148" width="111.24" height="60" as="geometry"/>
                </mxCell>
                <mxCell id="663" value="&lt;span style=&quot;color: rgb(255 , 255 , 255)&quot;&gt;&lt;u&gt;ワード&lt;br&gt;&lt;/u&gt;&lt;/span&gt;(NCWord&lt;span&gt;)&lt;/span&gt;&lt;br style=&quot;color: rgb(255 , 255 , 255)&quot;&gt;&lt;font color=&quot;#ffffff&quot;&gt;アドレス&lt;br&gt;&lt;/font&gt;データ" style="rounded=1;whiteSpace=wrap;html=1;verticalAlign=middle;align=center;" parent="1" vertex="1">
                    <mxGeometry x="39.37999999999998" y="1148" width="111.24" height="60" as="geometry"/>
                </mxCell>
                <mxCell id="673" value="サブプログラムを読み込む" style="rounded=1;whiteSpace=wrap;html=1;" parent="1" vertex="1">
                    <mxGeometry x="950" y="90" width="180" height="40" as="geometry"/>
                </mxCell>
                <mxCell id="675" value="メインプログラムを読み込む" style="rounded=1;whiteSpace=wrap;html=1;" parent="1" vertex="1">
                    <mxGeometry x="950" y="150" width="180" height="40" as="geometry"/>
                </mxCell>
                <mxCell id="678" value="&lt;u&gt;メインプログラムパラメータ集約&lt;/u&gt;" style="rounded=0;whiteSpace=wrap;html=1;verticalAlign=top;" parent="1" vertex="1">
                    <mxGeometry x="10.93" y="1240" width="359.07" height="400" as="geometry"/>
                </mxCell>
                <mxCell id="679" value="&lt;span style=&quot;color: rgb(255 , 255 , 255)&quot;&gt;&lt;u&gt;リーマパラメータ&lt;br&gt;&lt;/u&gt;&lt;/span&gt;(ReamerProgramPrameter&lt;span&gt;)&lt;/span&gt;&lt;br style=&quot;color: rgb(255 , 255 , 255)&quot;&gt;&lt;font color=&quot;#ffffff&quot;&gt;リーマ径&lt;br&gt;&lt;/font&gt;下穴&lt;span style=&quot;color: rgb(255 , 255 , 255)&quot;&gt;径&lt;/span&gt;1&lt;br&gt;下穴&lt;span style=&quot;color: rgb(255 , 255 , 255)&quot;&gt;径&lt;/span&gt;2&lt;br&gt;C/D深さ&lt;br&gt;面取深さ" style="rounded=1;whiteSpace=wrap;html=1;verticalAlign=middle;align=center;" parent="1" vertex="1">
                    <mxGeometry x="30.310000000000002" y="1280" width="150.62" height="110" as="geometry"/>
                </mxCell>
                <mxCell id="681" value="(リーマパラメータ)&lt;br&gt;リーマ径: 4&lt;br&gt;下穴径1: 3&lt;br&gt;&lt;span style=&quot;color: rgb(240 , 240 , 240)&quot;&gt;下穴&lt;/span&gt;径&lt;span style=&quot;color: rgb(240 , 240 , 240)&quot;&gt;2: 3.8&lt;/span&gt;&lt;br style=&quot;color: rgb(240 , 240 , 240)&quot;&gt;&lt;span style=&quot;color: rgb(240 , 240 , 240)&quot;&gt;C/D深さ: -0.5&lt;/span&gt;&lt;br style=&quot;color: rgb(240 , 240 , 240)&quot;&gt;&lt;span style=&quot;color: rgb(240 , 240 , 240)&quot;&gt;面取深さ: -2.1&lt;/span&gt;" style="rounded=1;whiteSpace=wrap;html=1;verticalAlign=middle;align=center;fillColor=#60a917;strokeColor=#2D7600;fontColor=#ffffff;" parent="1" vertex="1">
                    <mxGeometry x="880" y="1270" width="120" height="99" as="geometry"/>
                </mxCell>
                <mxCell id="682" value="(タップパラメータ)&lt;br&gt;リーマ径: 4&lt;br&gt;下穴径1: 3&lt;br&gt;&lt;span style=&quot;color: rgb(240 , 240 , 240)&quot;&gt;下穴&lt;/span&gt;径&lt;span style=&quot;color: rgb(240 , 240 , 240)&quot;&gt;2: 3.8&lt;/span&gt;&lt;br style=&quot;color: rgb(240 , 240 , 240)&quot;&gt;&lt;span style=&quot;color: rgb(240 , 240 , 240)&quot;&gt;C/D深さ: -0.5&lt;/span&gt;&lt;br style=&quot;color: rgb(240 , 240 , 240)&quot;&gt;&lt;span style=&quot;color: rgb(240 , 240 , 240)&quot;&gt;面取深さ: -2.1&lt;br&gt;&lt;/span&gt;&lt;span style=&quot;color: rgb(240 , 240 , 240)&quot;&gt;回転(アルミ): 200&lt;/span&gt;&lt;br style=&quot;color: rgb(240 , 240 , 240)&quot;&gt;&lt;span style=&quot;color: rgb(240 , 240 , 240)&quot;&gt;送り(アルミ): 400&lt;/span&gt;&lt;br style=&quot;color: rgb(240 , 240 , 240)&quot;&gt;&lt;span style=&quot;color: rgb(240 , 240 , 240)&quot;&gt;回転(SS400)&lt;/span&gt;&lt;span style=&quot;color: rgb(240 , 240 , 240)&quot;&gt;: 200&lt;/span&gt;&lt;br style=&quot;color: rgb(240 , 240 , 240)&quot;&gt;&lt;span style=&quot;color: rgb(240 , 240 , 240)&quot;&gt;送り(SS400)&lt;/span&gt;&lt;span style=&quot;color: rgb(240 , 240 , 240)&quot;&gt;: 400&lt;/span&gt;&lt;span style=&quot;color: rgb(240 , 240 , 240)&quot;&gt;&lt;br&gt;&lt;/span&gt;" style="rounded=1;whiteSpace=wrap;html=1;verticalAlign=middle;align=center;fillColor=#60a917;strokeColor=#2D7600;fontColor=#ffffff;" parent="1" vertex="1">
                    <mxGeometry x="1030" y="1270" width="120" height="160" as="geometry"/>
                </mxCell>
                <mxCell id="685" value="&lt;span style=&quot;color: rgb(255 , 255 , 255)&quot;&gt;&lt;u&gt;ドリルパラメータ&lt;br&gt;&lt;/u&gt;&lt;/span&gt;(DrillProgramPrameter&lt;span&gt;)&lt;/span&gt;&lt;br style=&quot;color: rgb(255 , 255 , 255)&quot;&gt;&lt;font color=&quot;#ffffff&quot;&gt;ドリル径&lt;br&gt;&lt;/font&gt;C/D深さ&lt;br&gt;面取深さ&lt;br&gt;先端見込(アルミ)&lt;br&gt;回転(アルミ)&lt;br&gt;送り(アルミ)&lt;br&gt;先端見込(SS400)&lt;br&gt;回転(SS400)&lt;br&gt;送り(SS400)" style="rounded=1;whiteSpace=wrap;html=1;verticalAlign=middle;align=center;" parent="1" vertex="1">
                    <mxGeometry x="30.31" y="1410" width="150.62" height="170" as="geometry"/>
                </mxCell>
                <mxCell id="687" style="edgeStyle=none;html=1;dashed=1;endArrow=none;endFill=0;" parent="1" source="686" target="679" edge="1">
                    <mxGeometry relative="1" as="geometry"/>
                </mxCell>
                <mxCell id="688" style="edgeStyle=none;html=1;dashed=1;endArrow=none;endFill=0;" parent="1" source="686" target="680" edge="1">
                    <mxGeometry relative="1" as="geometry"/>
                </mxCell>
                <mxCell id="686" value="・C/D深さ、面取り深さはリストを参照&lt;br&gt;　ドリルパラメータとは値が違うことがある" style="rounded=0;whiteSpace=wrap;html=1;align=left;verticalAlign=top;fontSize=13;spacing=2;" parent="1" vertex="1">
                    <mxGeometry x="380" y="1210" width="190" height="70" as="geometry"/>
                </mxCell>
                <mxCell id="690" style="edgeStyle=none;html=1;dashed=1;endArrow=none;endFill=0;" parent="1" source="689" target="685" edge="1">
                    <mxGeometry relative="1" as="geometry"/>
                </mxCell>
                <mxCell id="689" value="・ドリル径は、小さいほうの近似値を採用する&lt;br&gt;&amp;nbsp; &amp;nbsp; 例) 1.9のドリル径は、1.5の行のデータを採用する&lt;br&gt;・次の項目は計算で値を求める&lt;br&gt;&amp;nbsp; &amp;nbsp; ・面取り深さ&lt;br&gt;&amp;nbsp; &amp;nbsp; &amp;nbsp; &amp;nbsp; 工具径÷2+0.2&lt;br&gt;&amp;nbsp; &amp;nbsp; ・先端見込 穴加工条件表エクセルから&lt;br&gt;&lt;span style=&quot;font-size: 12px&quot;&gt;=ROUND(ABS(([@径（φ）]/2)/TAN(65)),1)-MOD(ROUND(ABS(([@径（φ）]/2)/TAN(65)),1),0.5)+$C$6&lt;/span&gt;" style="rounded=0;whiteSpace=wrap;html=1;align=left;verticalAlign=top;fontSize=13;spacing=2;" parent="1" vertex="1">
                    <mxGeometry x="380" y="1330" width="329.38" height="160" as="geometry"/>
                </mxCell>
                <mxCell id="697" style="edgeStyle=none;html=1;startArrow=diamond;startFill=1;endArrow=none;endFill=0;" parent="1" source="692" target="513" edge="1">
                    <mxGeometry relative="1" as="geometry"/>
                </mxCell>
                <mxCell id="692" value="&lt;span style=&quot;color: rgb(255 , 255 , 255)&quot;&gt;&lt;u&gt;作業指示者&lt;br&gt;&lt;/u&gt;&lt;/span&gt;(OperationDirecter&lt;span&gt;)&lt;/span&gt;&lt;br style=&quot;color: rgb(255 , 255 , 255)&quot;&gt;&lt;span style=&quot;color: rgb(255 , 255 , 255)&quot;&gt;プログラム番号&lt;br&gt;作業指示種別&lt;br&gt;ツール径&lt;br&gt;サブNCプログラム&lt;br&gt;&lt;/span&gt;" style="rounded=1;whiteSpace=wrap;html=1;verticalAlign=middle;align=center;" parent="1" vertex="1">
                    <mxGeometry x="25" y="898" width="130" height="93.5" as="geometry"/>
                </mxCell>
                <mxCell id="680" value="&lt;span style=&quot;color: rgb(255 , 255 , 255)&quot;&gt;&lt;u&gt;タップパラメータ&lt;br&gt;&lt;/u&gt;&lt;/span&gt;(TapProgramPrameter&lt;span&gt;)&lt;/span&gt;&lt;br style=&quot;color: rgb(255 , 255 , 255)&quot;&gt;&lt;font color=&quot;#ffffff&quot;&gt;タップ径&lt;br&gt;&lt;/font&gt;下穴&lt;br&gt;C/D深さ&lt;br&gt;面取り深さ&lt;br&gt;回転(アルミ)&lt;br&gt;送り(アルミ)&lt;br&gt;回転(SS400)&lt;br&gt;送り(SS400)" style="rounded=1;whiteSpace=wrap;html=1;verticalAlign=middle;align=center;" parent="1" vertex="1">
                    <mxGeometry x="199.38" y="1290" width="150.62" height="150" as="geometry"/>
                </mxCell>
                <mxCell id="698" value="&lt;span style=&quot;color: rgb(255 , 255 , 255)&quot;&gt;&lt;u&gt;インチ変換表&lt;br&gt;&lt;/u&gt;&lt;/span&gt;(&lt;span style=&quot;text-align: left;&quot;&gt;DrillSizeData&lt;/span&gt;&lt;span&gt;)&lt;/span&gt;&lt;br style=&quot;color: rgb(255 , 255 , 255)&quot;&gt;&lt;font color=&quot;#ffffff&quot;&gt;識別子&lt;br&gt;インチ径&lt;br&gt;&lt;/font&gt;ミリ径" style="rounded=1;whiteSpace=wrap;html=1;verticalAlign=middle;align=center;" parent="1" vertex="1">
                    <mxGeometry x="199.38" y="1500" width="150.62" height="80" as="geometry"/>
                </mxCell>
                <mxCell id="699" value="&lt;u&gt;メインプログラム書き換えドメインサービス&lt;/u&gt;" style="rounded=0;whiteSpace=wrap;html=1;verticalAlign=top;" vertex="1" parent="1">
                    <mxGeometry x="10.93" y="1670" width="509.07" height="530" as="geometry"/>
                </mxCell>
                <mxCell id="700" value="&lt;span style=&quot;color: rgb(255 , 255 , 255)&quot;&gt;&lt;u&gt;工具パラメータ&lt;br&gt;&lt;/u&gt;&lt;/span&gt;(ToolParameter&lt;span&gt;)&lt;br&gt;&lt;/span&gt;書き換え元NCプログラムリスト&lt;br&gt;&lt;font color=&quot;#ffffff&quot;&gt;素材&lt;br&gt;板厚&lt;br&gt;サブプログラム番号&lt;br&gt;工具径&lt;br&gt;穴加工方法&lt;br&gt;止まり穴下穴深さ&lt;br&gt;止まり穴深さ&lt;br&gt;クリスタルリーマーパラメータリスト&lt;br&gt;スキルリーマーパラメータリスト&lt;br&gt;タップパラメータリスト&lt;/font&gt;" style="rounded=1;whiteSpace=wrap;html=1;verticalAlign=middle;align=center;" vertex="1" parent="1">
                    <mxGeometry x="30.31" y="1700" width="219.69" height="210" as="geometry"/>
                </mxCell>
                <mxCell id="707" style="edgeStyle=none;html=1;endArrow=block;endFill=0;startArrow=none;startFill=0;" edge="1" parent="1" source="701" target="702">
                    <mxGeometry relative="1" as="geometry"/>
                </mxCell>
                <mxCell id="708" style="edgeStyle=none;html=1;startArrow=none;startFill=0;endArrow=block;endFill=0;" edge="1" parent="1" source="701" target="703">
                    <mxGeometry relative="1" as="geometry"/>
                </mxCell>
                <mxCell id="709" style="edgeStyle=none;html=1;startArrow=none;startFill=0;endArrow=block;endFill=0;" edge="1" parent="1" source="701" target="704">
                    <mxGeometry relative="1" as="geometry"/>
                </mxCell>
                <mxCell id="710" style="edgeStyle=none;html=1;startArrow=none;startFill=0;endArrow=block;endFill=0;" edge="1" parent="1" source="701" target="705">
                    <mxGeometry relative="1" as="geometry"/>
                </mxCell>
                <mxCell id="711" style="edgeStyle=none;html=1;startArrow=none;startFill=0;endArrow=block;endFill=0;" edge="1" parent="1" source="701" target="706">
                    <mxGeometry relative="1" as="geometry"/>
                </mxCell>
                <mxCell id="701" value="&lt;span style=&quot;color: rgb(255 , 255 , 255)&quot;&gt;&lt;u&gt;メインプログラム書き換えパラメータIF&lt;br&gt;&lt;/u&gt;&lt;/span&gt;(INcProgramRewriteParameter&lt;span&gt;)&lt;br&gt;&lt;/span&gt;書き換え元NCプログラム&lt;br&gt;&lt;font color=&quot;#ffffff&quot;&gt;素材&lt;br&gt;ツールパラメーター&lt;br&gt;サブプログラム番号&lt;/font&gt;" style="rounded=1;whiteSpace=wrap;html=1;verticalAlign=middle;align=center;" vertex="1" parent="1">
                    <mxGeometry x="30.31" y="1945" width="229.69" height="110" as="geometry"/>
                </mxCell>
                <mxCell id="702" value="&lt;span style=&quot;color: rgb(255 , 255 , 255)&quot;&gt;&lt;u&gt;センタードリル&lt;/u&gt;&lt;/span&gt;&lt;u style=&quot;color: rgb(255, 255, 255);&quot;&gt;書き換え&lt;/u&gt;&lt;span style=&quot;color: rgb(255 , 255 , 255)&quot;&gt;&lt;u&gt;パラメータ&lt;br&gt;&lt;/u&gt;&lt;/span&gt;(CenterDrillingRewriteParameter&lt;span&gt;)&lt;/span&gt;" style="rounded=1;whiteSpace=wrap;html=1;verticalAlign=middle;align=center;" vertex="1" parent="1">
                    <mxGeometry x="289.69" y="1830" width="200" height="55" as="geometry"/>
                </mxCell>
                <mxCell id="703" value="&lt;span style=&quot;color: rgb(255 , 255 , 255)&quot;&gt;&lt;u&gt;面取り&lt;/u&gt;&lt;/span&gt;&lt;u style=&quot;color: rgb(255, 255, 255);&quot;&gt;書き換え&lt;/u&gt;&lt;span style=&quot;color: rgb(255 , 255 , 255)&quot;&gt;&lt;u&gt;パラメータ&lt;br&gt;&lt;/u&gt;&lt;/span&gt;(ChamferingRewriteParameter&lt;span&gt;)&lt;/span&gt;" style="rounded=1;whiteSpace=wrap;html=1;verticalAlign=middle;align=center;" vertex="1" parent="1">
                    <mxGeometry x="289.69" y="1895" width="200" height="55" as="geometry"/>
                </mxCell>
                <mxCell id="704" value="&lt;span style=&quot;color: rgb(255 , 255 , 255)&quot;&gt;&lt;u&gt;ドリル&lt;/u&gt;&lt;/span&gt;&lt;u style=&quot;color: rgb(255, 255, 255);&quot;&gt;書き換え&lt;/u&gt;&lt;span style=&quot;color: rgb(255 , 255 , 255)&quot;&gt;&lt;u&gt;パラメータ&lt;br&gt;&lt;/u&gt;&lt;/span&gt;(DrillingRewriteParameter&lt;span&gt;)&lt;br&gt;ドリル深さ&lt;br&gt;ドリル径&lt;br&gt;&lt;/span&gt;" style="rounded=1;whiteSpace=wrap;html=1;verticalAlign=middle;align=center;" vertex="1" parent="1">
                    <mxGeometry x="289.69" y="1965" width="200" height="70" as="geometry"/>
                </mxCell>
                <mxCell id="705" value="&lt;span style=&quot;color: rgb(255 , 255 , 255)&quot;&gt;&lt;u&gt;リーマ&lt;/u&gt;&lt;/span&gt;&lt;u style=&quot;color: rgb(255, 255, 255);&quot;&gt;書き換え&lt;/u&gt;&lt;span style=&quot;color: rgb(255 , 255 , 255)&quot;&gt;&lt;u&gt;パラメータ&lt;br&gt;&lt;/u&gt;&lt;/span&gt;(ReamingRewriteParameter&lt;span&gt;)&lt;br&gt;リーマー種類&lt;br&gt;リーマー深さ&lt;br&gt;&lt;/span&gt;" style="rounded=1;whiteSpace=wrap;html=1;verticalAlign=middle;align=center;" vertex="1" parent="1">
                    <mxGeometry x="289.69" y="2043" width="200" height="70" as="geometry"/>
                </mxCell>
                <mxCell id="706" value="&lt;span style=&quot;color: rgb(255 , 255 , 255)&quot;&gt;&lt;u&gt;タップ&lt;/u&gt;&lt;/span&gt;&lt;u style=&quot;color: rgb(255, 255, 255);&quot;&gt;書き換え&lt;/u&gt;&lt;span style=&quot;color: rgb(255 , 255 , 255)&quot;&gt;&lt;u&gt;パラメータ&lt;br&gt;&lt;/u&gt;&lt;/span&gt;(TappingRewriteParameter&lt;span&gt;)&lt;br&gt;タップ深さ&lt;br&gt;&lt;/span&gt;" style="rounded=1;whiteSpace=wrap;html=1;verticalAlign=middle;align=center;" vertex="1" parent="1">
                    <mxGeometry x="289.69" y="2125" width="200" height="60" as="geometry"/>
                </mxCell>
            </root>
        </mxGraphModel>
    </diagram>
    <diagram id="GC2mZp-eliTmwVE0-EQn" name="タイミング図">
        <mxGraphModel dx="1386" dy="787" grid="1" gridSize="10" guides="1" tooltips="1" connect="1" arrows="1" fold="1" page="1" pageScale="1" pageWidth="1169" pageHeight="827" math="0" shadow="0">
            <root>
                <mxCell id="uFFxeDsAcsZEt6mVLsAy-0"/>
                <mxCell id="uFFxeDsAcsZEt6mVLsAy-1" parent="uFFxeDsAcsZEt6mVLsAy-0"/>
                <mxCell id="cWa9Pjb9JkdC5c4ndMY4-25" style="edgeStyle=orthogonalEdgeStyle;html=1;fontSize=16;fontColor=default;endArrow=classic;endFill=1;" parent="uFFxeDsAcsZEt6mVLsAy-1" source="cWa9Pjb9JkdC5c4ndMY4-1" target="cWa9Pjb9JkdC5c4ndMY4-4" edge="1">
                    <mxGeometry relative="1" as="geometry"/>
                </mxCell>
                <mxCell id="cWa9Pjb9JkdC5c4ndMY4-1" value="勤怠エクセル作成" style="shape=note2;boundedLbl=1;whiteSpace=wrap;html=1;size=25;verticalAlign=top;align=center;fontSize=16;fontColor=default;" parent="uFFxeDsAcsZEt6mVLsAy-1" vertex="1">
                    <mxGeometry x="270" y="40" width="90" height="110" as="geometry"/>
                </mxCell>
                <mxCell id="cWa9Pjb9JkdC5c4ndMY4-2" value="社員" style="text;html=1;strokeColor=none;fillColor=none;align=center;verticalAlign=middle;whiteSpace=wrap;rounded=0;fontSize=16;fontColor=default;" parent="uFFxeDsAcsZEt6mVLsAy-1" vertex="1">
                    <mxGeometry x="30" y="80" width="160" height="30" as="geometry"/>
                </mxCell>
                <mxCell id="cWa9Pjb9JkdC5c4ndMY4-3" value="今回のソフト" style="text;html=1;strokeColor=none;fillColor=none;align=center;verticalAlign=middle;whiteSpace=wrap;rounded=0;fontSize=16;fontColor=default;" parent="uFFxeDsAcsZEt6mVLsAy-1" vertex="1">
                    <mxGeometry x="40" y="280" width="160" height="30" as="geometry"/>
                </mxCell>
                <mxCell id="cWa9Pjb9JkdC5c4ndMY4-26" style="edgeStyle=orthogonalEdgeStyle;html=1;fontSize=16;fontColor=default;endArrow=classic;endFill=1;entryX=0.5;entryY=0;entryDx=0;entryDy=0;" parent="uFFxeDsAcsZEt6mVLsAy-1" source="cWa9Pjb9JkdC5c4ndMY4-4" target="cWa9Pjb9JkdC5c4ndMY4-29" edge="1">
                    <mxGeometry relative="1" as="geometry">
                        <mxPoint x="740" y="500" as="targetPoint"/>
                    </mxGeometry>
                </mxCell>
                <mxCell id="cWa9Pjb9JkdC5c4ndMY4-32" value="一致した場合" style="edgeLabel;html=1;align=center;verticalAlign=middle;resizable=0;points=[];fontSize=16;fontColor=default;" parent="cWa9Pjb9JkdC5c4ndMY4-26" vertex="1" connectable="0">
                    <mxGeometry x="-0.4705" relative="1" as="geometry">
                        <mxPoint x="-1" as="offset"/>
                    </mxGeometry>
                </mxCell>
                <mxCell id="xza8FR8Zr-br7byPEPtf-0" style="edgeStyle=orthogonalEdgeStyle;html=1;entryX=0;entryY=0.5;entryDx=0;entryDy=0;entryPerimeter=0;" parent="uFFxeDsAcsZEt6mVLsAy-1" source="cWa9Pjb9JkdC5c4ndMY4-4" target="cWa9Pjb9JkdC5c4ndMY4-6" edge="1">
                    <mxGeometry relative="1" as="geometry">
                        <Array as="points">
                            <mxPoint x="310" y="290"/>
                            <mxPoint x="310" y="525"/>
                        </Array>
                    </mxGeometry>
                </mxCell>
                <mxCell id="xza8FR8Zr-br7byPEPtf-1" value="一致しなかった場合" style="edgeLabel;html=1;align=center;verticalAlign=middle;resizable=0;points=[];fontSize=16;" parent="xza8FR8Zr-br7byPEPtf-0" vertex="1" connectable="0">
                    <mxGeometry x="-0.789" relative="1" as="geometry">
                        <mxPoint x="-43" as="offset"/>
                    </mxGeometry>
                </mxCell>
                <mxCell id="xza8FR8Zr-br7byPEPtf-2" value="タイムレコーダーかCSVを直す" style="edgeLabel;html=1;align=center;verticalAlign=middle;resizable=0;points=[];fontSize=16;" parent="xza8FR8Zr-br7byPEPtf-0" vertex="1" connectable="0">
                    <mxGeometry x="0.115" relative="1" as="geometry">
                        <mxPoint x="160" y="-44" as="offset"/>
                    </mxGeometry>
                </mxCell>
                <mxCell id="cWa9Pjb9JkdC5c4ndMY4-4" value="比較" style="rounded=1;whiteSpace=wrap;html=1;fontSize=16;fontColor=default;" parent="uFFxeDsAcsZEt6mVLsAy-1" vertex="1">
                    <mxGeometry x="590" y="260" width="120" height="60" as="geometry"/>
                </mxCell>
                <mxCell id="cWa9Pjb9JkdC5c4ndMY4-5" value="タイムレコーダーのアプリケーション" style="text;html=1;strokeColor=none;fillColor=none;align=center;verticalAlign=middle;whiteSpace=wrap;rounded=0;fontSize=16;fontColor=default;" parent="uFFxeDsAcsZEt6mVLsAy-1" vertex="1">
                    <mxGeometry x="40" y="490" width="160" height="70" as="geometry"/>
                </mxCell>
                <mxCell id="cWa9Pjb9JkdC5c4ndMY4-30" style="edgeStyle=orthogonalEdgeStyle;html=1;entryX=0;entryY=0.5;entryDx=0;entryDy=0;fontSize=16;fontColor=default;endArrow=classic;endFill=1;exitX=0;exitY=0;exitDx=90;exitDy=67.5;exitPerimeter=0;" parent="uFFxeDsAcsZEt6mVLsAy-1" source="cWa9Pjb9JkdC5c4ndMY4-6" target="cWa9Pjb9JkdC5c4ndMY4-29" edge="1">
                    <mxGeometry relative="1" as="geometry"/>
                </mxCell>
                <mxCell id="cWa9Pjb9JkdC5c4ndMY4-6" value="CSV作成" style="shape=note2;boundedLbl=1;whiteSpace=wrap;html=1;size=25;verticalAlign=top;align=center;fontSize=16;fontColor=default;" parent="uFFxeDsAcsZEt6mVLsAy-1" vertex="1">
                    <mxGeometry x="430" y="470" width="90" height="110" as="geometry"/>
                </mxCell>
                <mxCell id="cWa9Pjb9JkdC5c4ndMY4-9" value="給与のシステム" style="text;html=1;strokeColor=none;fillColor=none;align=center;verticalAlign=middle;whiteSpace=wrap;rounded=0;fontSize=16;fontColor=default;" parent="uFFxeDsAcsZEt6mVLsAy-1" vertex="1">
                    <mxGeometry x="40" y="710" width="160" height="70" as="geometry"/>
                </mxCell>
                <mxCell id="cWa9Pjb9JkdC5c4ndMY4-10" value="取込" style="rounded=1;whiteSpace=wrap;html=1;fontSize=16;fontColor=default;" parent="uFFxeDsAcsZEt6mVLsAy-1" vertex="1">
                    <mxGeometry x="810" y="715" width="120" height="60" as="geometry"/>
                </mxCell>
                <mxCell id="cWa9Pjb9JkdC5c4ndMY4-12" value="" style="endArrow=none;html=1;fontSize=16;fontColor=default;" parent="uFFxeDsAcsZEt6mVLsAy-1" edge="1">
                    <mxGeometry width="50" height="50" relative="1" as="geometry">
                        <mxPoint x="20" y="210" as="sourcePoint"/>
                        <mxPoint x="1140" y="210" as="targetPoint"/>
                    </mxGeometry>
                </mxCell>
                <mxCell id="cWa9Pjb9JkdC5c4ndMY4-13" value="" style="endArrow=none;html=1;fontSize=16;fontColor=default;" parent="uFFxeDsAcsZEt6mVLsAy-1" edge="1">
                    <mxGeometry width="50" height="50" relative="1" as="geometry">
                        <mxPoint x="20" y="400" as="sourcePoint"/>
                        <mxPoint x="1140" y="400" as="targetPoint"/>
                    </mxGeometry>
                </mxCell>
                <mxCell id="cWa9Pjb9JkdC5c4ndMY4-14" value="" style="endArrow=none;html=1;fontSize=16;fontColor=default;" parent="uFFxeDsAcsZEt6mVLsAy-1" edge="1">
                    <mxGeometry width="50" height="50" relative="1" as="geometry">
                        <mxPoint x="20" y="650" as="sourcePoint"/>
                        <mxPoint x="1140" y="650" as="targetPoint"/>
                    </mxGeometry>
                </mxCell>
                <mxCell id="cWa9Pjb9JkdC5c4ndMY4-17" value="" style="endArrow=none;dashed=1;html=1;dashPattern=1 3;strokeWidth=2;fontSize=16;fontColor=default;" parent="uFFxeDsAcsZEt6mVLsAy-1" edge="1">
                    <mxGeometry width="50" height="50" relative="1" as="geometry">
                        <mxPoint x="220" y="810" as="sourcePoint"/>
                        <mxPoint x="220" y="10.000000000000114" as="targetPoint"/>
                    </mxGeometry>
                </mxCell>
                <mxCell id="cWa9Pjb9JkdC5c4ndMY4-18" value="" style="endArrow=none;dashed=1;html=1;dashPattern=1 3;strokeWidth=2;fontSize=16;fontColor=default;" parent="uFFxeDsAcsZEt6mVLsAy-1" edge="1">
                    <mxGeometry width="50" height="50" relative="1" as="geometry">
                        <mxPoint x="390" y="810" as="sourcePoint"/>
                        <mxPoint x="390" y="10.000000000000114" as="targetPoint"/>
                    </mxGeometry>
                </mxCell>
                <mxCell id="cWa9Pjb9JkdC5c4ndMY4-19" value="" style="endArrow=none;dashed=1;html=1;dashPattern=1 3;strokeWidth=2;fontSize=16;fontColor=default;" parent="uFFxeDsAcsZEt6mVLsAy-1" edge="1">
                    <mxGeometry width="50" height="50" relative="1" as="geometry">
                        <mxPoint x="560" y="810" as="sourcePoint"/>
                        <mxPoint x="560" y="10.000000000000114" as="targetPoint"/>
                    </mxGeometry>
                </mxCell>
                <mxCell id="cWa9Pjb9JkdC5c4ndMY4-7" style="edgeStyle=orthogonalEdgeStyle;html=1;fontSize=16;fontColor=default;endArrow=classic;endFill=1;" parent="uFFxeDsAcsZEt6mVLsAy-1" source="cWa9Pjb9JkdC5c4ndMY4-6" target="cWa9Pjb9JkdC5c4ndMY4-4" edge="1">
                    <mxGeometry relative="1" as="geometry"/>
                </mxCell>
                <mxCell id="cWa9Pjb9JkdC5c4ndMY4-28" value="" style="endArrow=none;dashed=1;html=1;dashPattern=1 3;strokeWidth=2;fontSize=16;fontColor=default;" parent="uFFxeDsAcsZEt6mVLsAy-1" edge="1">
                    <mxGeometry width="50" height="50" relative="1" as="geometry">
                        <mxPoint x="750" y="800" as="sourcePoint"/>
                        <mxPoint x="750" y="1.1368683772161603e-13" as="targetPoint"/>
                    </mxGeometry>
                </mxCell>
                <mxCell id="cWa9Pjb9JkdC5c4ndMY4-31" style="edgeStyle=orthogonalEdgeStyle;html=1;fontSize=16;fontColor=default;endArrow=classic;endFill=1;" parent="uFFxeDsAcsZEt6mVLsAy-1" source="cWa9Pjb9JkdC5c4ndMY4-29" target="cWa9Pjb9JkdC5c4ndMY4-10" edge="1">
                    <mxGeometry relative="1" as="geometry"/>
                </mxCell>
                <mxCell id="cWa9Pjb9JkdC5c4ndMY4-29" value="" style="rhombus;whiteSpace=wrap;html=1;fontSize=16;fontColor=default;" parent="uFFxeDsAcsZEt6mVLsAy-1" vertex="1">
                    <mxGeometry x="830" y="520" width="80" height="80" as="geometry"/>
                </mxCell>
                <mxCell id="cWa9Pjb9JkdC5c4ndMY4-33" value="2022/11/16時点のフロー" style="text;html=1;strokeColor=none;fillColor=none;align=center;verticalAlign=middle;whiteSpace=wrap;rounded=0;fontSize=16;fontColor=default;" parent="uFFxeDsAcsZEt6mVLsAy-1" vertex="1">
                    <mxGeometry x="860" y="20" width="250" height="30" as="geometry"/>
                </mxCell>
            </root>
        </mxGraphModel>
    </diagram>
</mxfile>
